<svg xmlns="http://www.w3.org/2000/svg" xmlns:xlink="http://www.w3.org/1999/xlink" width="29" height="29" viewBox="0 0 29 29"><defs><path id="oj76a" d="M1218.907 467.542l-1.995 1.995 6.413 6.413 14.25-14.25-1.995-1.996-12.255 12.256zm17.243 2.707c0 6.27-5.13 11.4-11.4 11.4-6.27 0-11.4-5.13-11.4-11.4 0-6.27 5.13-11.4 11.4-11.4 1.14 0 2.137.143 3.135.428l2.28-2.28c-1.71-.57-3.563-.998-5.415-.998-7.838 0-14.25 6.413-14.25 14.25 0 7.838 6.412 14.25 14.25 14.25 7.837 0 14.25-6.412 14.25-14.25z"/></defs><g><g transform="translate(-1210 -456)"><use fill="#fff" xlink:href="#oj76a"/></g></g></svg>