<svg xmlns="http://www.w3.org/2000/svg" xmlns:xlink="http://www.w3.org/1999/xlink" width="27" height="30" viewBox="0 0 27 30"><defs><path id="wovga" d="M1467.175 81.689a.578.578 0 0 1-.394.683l-3.465 1.053a6.141 6.141 0 0 1-4.088-.193 6.129 6.129 0 0 1-1.876 3.635l-2.643 2.476a.577.577 0 0 1-.79 0l-2.642-2.476a6.131 6.131 0 0 1-1.877-3.635 6.153 6.153 0 0 1-4.087.193l-3.465-1.053a.577.577 0 0 1-.394-.683l.821-3.526a6.133 6.133 0 0 1 2.21-3.443 6.136 6.136 0 0 1-2.21-3.443l-.822-3.526a.578.578 0 0 1 .395-.684l.986-.3a.578.578 0 0 1 .336 1.105l-.47.142.7 3a4.973 4.973 0 0 0 2.15 3.045 6.126 6.126 0 0 1 3.678-.535l2.613.435-.541-.312a.577.577 0 1 1 .577-1l.544.314-1.686-2.049a6.12 6.12 0 0 1-1.375-3.451 4.997 4.997 0 0 0-1.861-.537.576.576 0 1 1 .096-1.15c.618.051 1.23.199 1.805.434a6.136 6.136 0 0 1 1.877-3.636l2.643-2.475a.576.576 0 0 1 .789 0l2.643 2.475a6.134 6.134 0 0 1 1.876 3.636 6.13 6.13 0 0 1 4.088-.193l3.465 1.052a.578.578 0 0 1 .394.684l-.822 3.526a6.135 6.135 0 0 1-2.21 3.443 6.133 6.133 0 0 1 2.21 3.443zm-7.906-14.23a6.12 6.12 0 0 1-1.376 3.453l-1.686 2.05.545-.315a.578.578 0 0 1 .577 1l-.541.312 2.613-.435a6.125 6.125 0 0 1 3.678.535 4.974 4.974 0 0 0 2.15-3.045l.7-3-2.948-.894a4.976 4.976 0 0 0-3.712.34zm-4.955 8a.739.739 0 0 0 .64-.37.735.735 0 0 0 .006-.73l-.006-.008-.003-.005a.735.735 0 0 0-.628-.365h-.017a.735.735 0 0 0-.628.365l-.003.005-.006.009a.736.736 0 0 0 .006.73c.128.22.366.37.64.37zm-2.687-5.28l2.11 2.564v-1.17a.578.578 0 0 1 1.155 0v1.17l2.11-2.564a4.965 4.965 0 0 0 1.128-3.148 4.972 4.972 0 0 0-1.567-3.616l-2.249-2.106-2.248 2.106a4.972 4.972 0 0 0-1.568 3.616c0 1.145.401 2.264 1.129 3.148zm-2.063 11.69a4.965 4.965 0 0 0 2.162-2.55l1.165-3.11-1.014.584a.579.579 0 0 1-.577-1l1.014-.585-3.276-.545a4.969 4.969 0 0 0-3.29.597 4.968 4.968 0 0 0-2.348 3.165l-.7 3 2.948.895a4.97 4.97 0 0 0 3.916-.451zm8.56.772a6.125 6.125 0 0 1-2.302-2.918l-.93-2.482v1.25a.578.578 0 0 1-1.155 0v-1.25l-.93 2.482a6.125 6.125 0 0 1-2.303 2.918 4.978 4.978 0 0 0 1.562 3.385l2.248 2.104 2.249-2.104a4.978 4.978 0 0 0 1.562-3.385zm7.804-1.215l-.699-3a4.97 4.97 0 0 0-2.348-3.166 4.966 4.966 0 0 0-3.29-.597l-3.276.545 1.014.585a.578.578 0 0 1-.577 1l-1.014-.585 1.165 3.11a4.966 4.966 0 0 0 2.162 2.55 4.97 4.97 0 0 0 3.916.452zm-11.213-1.033a.578.578 0 0 1-.816.817.582.582 0 0 1 .408-.986c.152 0 .3.062.408.169zm-9.914-13.334a.583.583 0 0 1-.169-.41c0-.151.062-.3.17-.407a.584.584 0 0 1 .407-.17.582.582 0 0 1 .577.577.583.583 0 0 1-.169.41.58.58 0 0 1-.816 0z"/></defs><g><g transform="translate(-1441 -60)"><use fill="#f7d245" xlink:href="#wovga"/></g></g></svg>