<svg xmlns="http://www.w3.org/2000/svg" xmlns:xlink="http://www.w3.org/1999/xlink" width="22" height="19" viewBox="0 0 22 19"><defs><path id="ohk3a" d="M1647 9628.33v2.462c-.002.662-.884 1.182-2.2 1.57v2.3c0 .11-.026.215-.072.316.757.302 1.14.661 1.166 1.093h.006v2.461c-.004 1.172-2.75 1.898-5.8 2.237-.023.005-.043.013-.067.013l-.02-.002c-.588.062-1.186.112-1.777.148-.012 0-.024.006-.036.006-.007 0-.013-.004-.02-.004-.75.044-1.49.066-2.18.066-.692 0-1.43-.022-2.181-.066-.007 0-.012.004-.02.004-.012 0-.023-.005-.036-.006a39.21 39.21 0 0 1-1.777-.148c-.007 0-.013.004-.02.004-.024 0-.044-.01-.066-.014-3.051-.34-5.797-1.066-5.8-2.236v-2.462h.005a.73.73 0 0 1 .049-.219c-.716-.33-1.153-.725-1.154-1.191v-2.46h.004c.035-.594.755-1.058 2.196-1.413v-2.459h.005a.752.752 0 0 1 .033-.179c-1.337-.39-2.236-.912-2.238-1.581v-2.463h.006c.131-2.05 8.888-2.111 9.894-2.111 1.005 0 9.762.061 9.894 2.111h.006v2.462a.775.775 0 0 1-.08.33c1.493.36 2.24.828 2.276 1.431zm-2.934 6.331v-1.455a5.622 5.622 0 0 1-1.1.484v1.677c.422-.159.743-.323.936-.485l.125-.106c.025-.04.04-.08.04-.115zm-7.57 1.729c.08-.003.159-.008.237-.01v-1.758c-.367.017-.736.027-1.106.034h-.058c-.1.003-.202.003-.302.005v1.758l.398-.004.16-.003c.228-.006.45-.013.672-.022zm-2.176.028l.213.002v-1.759l-.302-.004h-.058c-.37-.008-.739-.017-1.106-.035v1.758a61.849 61.849 0 0 0 .656.025c.166.005.334.008.502.011l.095.002zm-6.584-.767c.283.073.594.146.93.213v-1.716c-.389-.074-.757-.155-1.1-.243v1.699l.036.01c.043.013.09.023.134.037zm7.536 2.875c-.369-.006-.738-.016-1.106-.033v1.758c.471.022.96.034 1.467.04v-1.759c-.1-.001-.202-.002-.302-.005h-.059zm1.397.001l-.303.005v1.758a42.04 42.04 0 0 0 1.467-.04v-1.757c-.367.016-.737.026-1.106.033l-.058.001zm1.897-.074v1.754c.381-.025.748-.057 1.1-.092v-1.748c-.36.034-.728.063-1.1.086zm1.834 1.577c.387-.047.754-.102 1.1-.16v-1.727c-.355.054-.722.104-1.1.15zm1.833-.295c.406-.083.773-.17 1.1-.26v-1.7c-.343.087-.71.169-1.1.243zm-13.567-1.96v1.7c.327.09.695.177 1.1.26v-1.717c-.39-.074-.757-.156-1.1-.243zm1.834 2.095c.345.06.712.114 1.1.16v-1.738a31.285 31.285 0 0 1-1.1-.148zm1.833.245c.352.035.72.067 1.1.092v-1.754c-.372-.023-.74-.052-1.1-.086zm0-3.778v-1.755c-.372-.022-.74-.051-1.1-.084v1.747c.026.001.053.006.079.008.037.003.074.01.111.01.298.028.602.053.91.074zm-2.933-2.064V9636c.345.058.712.113 1.1.16v-1.737a32.665 32.665 0 0 1-1.1-.15zm8.47 2.035c.238-.02.47-.041.696-.063v-1.748c-.36.034-.728.063-1.1.085v1.755c.082-.005.164-.01.244-.017l.16-.012zm2.53-.308v-1.727c-.355.054-.722.105-1.1.15v1.738c.387-.047.754-.103 1.1-.16zm.733-.136c.406-.083.773-.17 1.1-.26v-1.699c-.342.088-.71.168-1.1.243zm-4.933-3.322l.533.007v-1.757l-.303-.005h-.058c-.369-.007-.738-.019-1.106-.036v1.758l.043.002c.265.012.534.022.81.03l.08.001zm-8.236-4.926a13.937 13.937 0 0 0 .702.156v-1.717c-.389-.074-.757-.156-1.1-.242v1.699c.127.033.259.07.398.104zm6.208-1.053c-.37-.006-.738-.016-1.106-.033v1.755c.483.023.974.036 1.467.04v-1.756c-.1 0-.202-.002-.303-.004l-.058-.002zm1.397.002a12.85 12.85 0 0 1-.303.004v1.757l.397-.004.118-.002c.255-.006.505-.013.751-.024h.016l.185-.01v-1.756c-.367.016-.737.027-1.106.033l-.058.002zm8.497.004v-1.457a5.554 5.554 0 0 1-1.1.484v1.674c.382-.141.68-.287.873-.433l.133-.099.01.002c.055-.061.084-.119.084-.17zm-3.666 1.336v-1.725c-.355.054-.722.106-1.1.149v1.737c.386-.047.752-.102 1.1-.161zm1.833-.398v-1.694c-.342.086-.71.168-1.1.242v1.715c.401-.083.772-.17 1.1-.263zm-4.767-1.017v1.753c.38-.026.746-.058 1.1-.093v-1.746c-.36.034-.728.063-1.1.086zm-5.133 1.752v-1.752c-.372-.023-.74-.052-1.1-.086v1.747c.359.035.727.065 1.1.091zm-2.933-2.062v1.73c.04.005.079.013.12.018.203.033.41.065.622.094.046.007.09.012.138.02.071.008.147.015.22.024v-1.737a28.667 28.667 0 0 1-1.1-.15zm5.133 6.286v-1.754a35.247 35.247 0 0 1-1.1-.085v1.748c.01 0 .02 0 .03.002.047.005.095.009.143.016.224.02.453.039.688.057l.148.012c.03 0 .061.001.09.004zm-2.488-.264c.21.031.43.06.655.089v-1.74a29.952 29.952 0 0 1-1.1-.148v1.725l.42.071.025.003zm-2.279-2.168v1.693c.328.092.695.182 1.1.264v-1.714c-.389-.074-.757-.155-1.1-.243zm-1.833-.7v1.458c0 .01.004.023.006.033l.025.04c.12.194.493.412 1.069.625v-1.672a5.514 5.514 0 0 1-1.1-.484zm9.836 1.453l-.303.005v1.756c.495-.005.985-.018 1.467-.041v-1.756c-.367.017-.737.029-1.106.035l-.058.001zm4.831 1.342v-1.726c-.355.055-.722.105-1.1.147v1.74c.094-.011.19-.023.283-.036.099-.013.197-.025.292-.04.167-.025.33-.052.49-.078l.035-.007zm-2.478.303c.219-.016.431-.037.644-.06v-1.745c-.36.034-.728.062-1.1.085v1.751c.139-.01.28-.016.417-.027l.039-.004zm4.311-.698v-1.7c-.342.088-.71.169-1.1.243v1.717l.087-.017c.096-.019.189-.041.28-.063.197-.042.39-.088.573-.137l.16-.043zm-.287-4.242c-.022.014-.05.028-.072.042l-.129.074c-.038.02-.074.042-.115.063-.091.047-.19.091-.29.136a8.333 8.333 0 0 1-.827.3l-.14.04a7.497 7.497 0 0 1-.233.067c-1.718.471-4.187.775-6.852.813a32.605 32.605 0 0 1-1.417-.004c-.46-.009-.915-.03-1.364-.054l-.007.002c-.005 0-.01-.003-.014-.003a33.774 33.774 0 0 1-1.818-.15s0 .002-.002.002l-.007-.002a25.961 25.961 0 0 1-2.915-.48c-.004.009-.004.014-.006.02.042.237.605.554 1.604.85 1.297.385 3.327.737 5.9.846.131.004.263.011.397.014l.332.01a36.31 36.31 0 0 0 1.858 0l.331-.008c.135-.005.266-.012.397-.016 2.573-.109 4.603-.461 5.9-.846 1.007-.3 1.572-.616 1.605-.855-.042-.146-.474-.519-2.116-.86zm-18.407-3.354c.044.238.606.552 1.603.847 1.297.386 3.328.737 5.9.846.131.006.262.012.397.015l.332.01a39.249 39.249 0 0 0 2.19-.01c.133-.003.265-.01.396-.015 2.573-.109 4.603-.46 5.9-.846.997-.295 1.56-.61 1.604-.847-.057-.525-3.115-1.438-9.161-1.438-6.046 0-9.104.913-9.161 1.438zm1.094 3.143v-1.685a5.55 5.55 0 0 1-1.1-.484v1.457c0 .199.387.456 1.1.712zm-1.096 4.941c.033.24.597.556 1.605.856 1.297.386 3.328.738 5.9.846.131.005.262.011.397.015l.332.01a36.36 36.36 0 0 0 1.63.003c.091 0 .182-.002.272-.004.084-.003.165-.006.248-.006 2.78-.087 4.967-.458 6.336-.863a6.652 6.652 0 0 0 1.085-.407c-1.23.255-2.684.432-4.233.52l-.01.002h-.004c-.467.025-.94.044-1.419.054-.264.005-.523.008-.776.008a38.992 38.992 0 0 1-2.199-.063l-.002.001h-.002c-1.546-.087-2.964-.263-4.153-.508a6.335 6.335 0 0 1-.289-.06 2.226 2.226 0 0 1-.091-.017c-1.294-.286-2.333-.668-2.835-1.154-.006-.007-.014-.01-.02-.016-1.36.32-1.731.652-1.772.783zm.882 3.07l.005-.003.209.078v-1.677a5.691 5.691 0 0 1-1.1-.484v1.455c0 .178.31.403.886.632zm1.314 3.952v-1.684a5.55 5.55 0 0 1-1.1-.484v1.456c0 .198.387.456 1.1.712zm17.233-.712v-1.456a5.554 5.554 0 0 1-1.1.484v1.684c.714-.257 1.1-.514 1.1-.712zm-.952-2.991c-.032.021-.072.042-.108.065a6.827 6.827 0 0 1-.117.07l-.102.057c-.643.342-1.58.618-2.663.83-.025.005-.051.01-.077.017l-.349.064c-.573.103-1.19.191-1.842.264-.008 0-.015.004-.023.004l-.006-.002c-.585.066-1.193.117-1.822.152l-.005.001-.003-.001a34.794 34.794 0 0 1-2.66.06 37.443 37.443 0 0 1-1.736-.06h-.003c-1.84-.104-3.545-.335-4.88-.663-.06-.017-.12-.03-.18-.046l-.118-.03a11.082 11.082 0 0 1-.304-.086c-.012-.002-.024-.007-.036-.01-.116-.035-.229-.071-.338-.107.07.235.63.542 1.6.828 1.298.385 3.327.737 5.9.846.132.004.264.011.4.015a39.384 39.384 0 0 0 2.519 0l.396-.014c2.573-.11 4.603-.461 5.9-.846 1.001-.297 1.565-.613 1.605-.851-.024-.09-.224-.31-.948-.557zm2.052-4.75v-1.457c-.292.177-.664.339-1.1.486v1.683c.714-.257 1.1-.513 1.1-.712z"/></defs><g><g transform="translate(-1625 -9622)"><use fill="#b6475f" xlink:href="#ohk3a"/></g></g></svg>