<svg xmlns="http://www.w3.org/2000/svg" xmlns:xlink="http://www.w3.org/1999/xlink" width="30" height="30" viewBox="0 0 30 30"><defs><path id="dvxea" d="M1756.435 79.933a.576.576 0 1 1-1.153 0 .576.576 0 0 1 1.153 0zm-6.684.577c0 .751-.481 1.392-1.152 1.63v.674a.576.576 0 1 1-1.152 0v-.672c-.384-.128-.746-.384-1.054-.75a.576.576 0 0 1 .882-.741c.236.28.502.436.748.436a.577.577 0 0 0 0-1.154 1.73 1.73 0 0 1-1.729-1.727 1.73 1.73 0 0 1 1.153-1.63v-.675a.577.577 0 1 1 1.152 0v.67c.263.088.556.249.848.532a.576.576 0 1 1-.8.828c-.204-.197-.42-.302-.624-.302a.577.577 0 0 0 0 1.152 1.73 1.73 0 0 1 1.728 1.729zm-6.914-11.524v-2.303a.576.576 0 1 1 1.153 0v2.303a.577.577 0 0 1-1.153 0zM1766 75.901v5.186a1.73 1.73 0 0 1-1.728 1.727h-.576v1.499a2.884 2.884 0 0 1-2.881 2.88h-.98a2.885 2.885 0 0 1-2.823 2.306h-17.63a2.885 2.885 0 0 1-2.882-2.882v-17.63a2.884 2.884 0 0 1 2.881-2.881h.577v-.577a1.73 1.73 0 0 1 1.728-1.728h1.729v-2.074a1.73 1.73 0 0 1 1.728-1.728h10.717a1.73 1.73 0 0 1 1.728 1.728v4.379h3.227a2.884 2.884 0 0 1 2.88 2.88v4.61a2.307 2.307 0 0 1 2.305 2.305zm-2.304-1.153v2.306a1.153 1.153 0 0 0 0-2.306zm-6.108-7.49v3.515a2.885 2.885 0 0 1 2.305 2.823v3.458h2.65v-8.068a1.73 1.73 0 0 0-1.728-1.728zm-13.021-3.457h7.49a1.73 1.73 0 0 1 1.729 1.728v5.186h2.65v-8.988a.576.576 0 0 0-.576-.576h-10.717a.576.576 0 0 0-.576.576zm8.066 6.914v-5.186a.577.577 0 0 0-.576-.576h-1.728v5.762zm-3.457 0v-5.762h-2.304v5.762zm-8.066 0h4.61v-5.762h-4.034a.577.577 0 0 0-.576.576zm-3.457-1.729c0 1.039.9 1.729 1.852 1.729h.453v-3.457h-.577a1.73 1.73 0 0 0-1.728 1.728zm21.088 17.631v-3.803h-4.033a1.73 1.73 0 0 1-1.729-1.727V78.78a1.73 1.73 0 0 1 1.729-1.727h4.033v-3.458a1.73 1.73 0 0 0-1.729-1.728h-17.507c-.69 0-1.337-.229-1.852-.612v15.361a1.73 1.73 0 0 0 1.728 1.729h17.631a1.73 1.73 0 0 0 1.729-1.729zm3.802-3.803h-2.65v3.227h.922a1.73 1.73 0 0 0 1.728-1.728zm2.305-1.727v-3.19c-.346.2-.741.31-1.152.31h-8.988a.576.576 0 0 0-.577.574v2.306c0 .317.259.576.577.576h9.564a.576.576 0 0 0 .576-.576zm-3.457-1.154a.576.576 0 0 1-.576.577h-2.65a.576.576 0 0 1 0-1.152h2.65c.318 0 .576.258.576.575z"/></defs><g><g transform="translate(-1736 -60)"><use fill="#f7d245" xlink:href="#dvxea"/></g></g></svg>