<svg xmlns="http://www.w3.org/2000/svg" xmlns:xlink="http://www.w3.org/1999/xlink" width="30" height="30" viewBox="0 0 30 30"><defs><path id="taexa" d="M1569.54 65.047v2.784c0 .5-.407.907-.908.907h-3.115a.908.908 0 0 1-.908-.907v-2.997c0-3.798 2.17-4.717 3.99-4.819a.574.574 0 0 1 .609.574v1.724a.574.574 0 0 1-.524.573c-.297.028-.942.086-1.1 1.253h1.048c.5 0 .907.407.907.908zm-1.152.244h-1.415a.576.576 0 0 1-.576-.576c0-1.947.888-2.64 1.659-2.875v-.606c-1.117.21-2.295.95-2.295 3.6v2.752h2.627zm7.039-.244v2.784c0 .5-.407.907-.907.907h-3.116a.908.908 0 0 1-.907-.907v-2.997c0-3.798 2.17-4.717 3.99-4.819a.575.575 0 0 1 .608.574v1.724a.574.574 0 0 1-.523.573c-.297.028-.943.086-1.1 1.253h1.048c.5 0 .907.407.907.908zm-1.152 2.54V65.29h-1.414a.576.576 0 0 1-.576-.576c0-1.947.887-2.64 1.658-2.875v-.606c-1.116.21-2.294.95-2.294 3.6v2.752zm3.81-2.514a.579.579 0 0 1-.576.577.58.58 0 0 1-.576-.577c0-.15.062-.299.169-.407a.582.582 0 0 1 .407-.168c.152 0 .3.062.407.168a.582.582 0 0 1 .169.407zm12.9 9.66c0 2.363-.825 4.669-2.323 6.49a10.27 10.27 0 0 1-5.344 3.419v4.281a.575.575 0 0 1-.983.406l-4.362-4.361h-6.238c-5.644 0-10.235-4.591-10.235-10.235 0-1.74.444-3.458 1.285-4.969a.576.576 0 0 1 1.006.56 9.087 9.087 0 0 0-1.14 4.409c0 5.009 4.075 9.084 9.084 9.084h6.477c.152 0 .299.06.407.168l3.547 3.547v-3.346c0-.273.19-.508.458-.564 4.177-.876 7.209-4.615 7.209-8.89 0-5.008-4.075-9.082-9.084-9.082h-.725a.576.576 0 0 1 0-1.152h.725c5.644 0 10.236 4.591 10.236 10.235zm-7.08-3.922a.576.576 0 0 1-.576.576h-14.174a.576.576 0 1 1 0-1.152h14.174c.318 0 .576.258.576.576zm0 3.07a.576.576 0 0 1-.576.577h-14.174a.576.576 0 0 1 0-1.151h14.174c.318 0 .576.257.576.575zm0 3.072a.576.576 0 0 1-.576.577h-14.174a.576.576 0 0 1 0-1.152h14.174c.318 0 .576.257.576.575zm0 3.072a.575.575 0 0 1-.576.575h-7.555a.575.575 0 1 1 0-1.15h7.555c.318 0 .576.258.576.575zm-10.795 0a.576.576 0 0 1-.576.575h-.01a.576.576 0 1 1 0-1.15h.01c.318 0 .576.258.576.575z"/></defs><g><g transform="translate(-1561 -60)"><use fill="#f7d245" xlink:href="#taexa"/></g></g></svg>