<svg xmlns="http://www.w3.org/2000/svg" xmlns:xlink="http://www.w3.org/1999/xlink" width="21" height="24" viewBox="0 0 21 24"><defs><path id="kg7fa" d="M1660.604 9459.151c.427.56.612 1.184.539 1.804-.073.615-.395 1.178-.932 1.634-.234.198-.471.386-.703.562-.34.266-.662.515-.95.794-.006.013-.016.016-.022.024-.83.732-1.813 1.023-2.925.883-.097-.011-.202-.033-.303-.049-1.639-.318-3.041-1.15-4.084-1.834-2.727-1.821-5.022-4.2-6.822-7.074-1.482-2.387-2.408-4.55-2.93-6.83-.212-.93-.466-2.334-.177-3.777a3.684 3.684 0 0 1 1.32-2.184l1.84-1.502.011-.01c.538-.416 1.137-.6 1.725-.524.587.073 1.116.399 1.526.938.278.339.543.697.796 1.044.125.178.26.357.391.529l1.154 1.53c.887 1.17.726 2.528-.41 3.445l-.454.373c-.401.33-.813.672-1.253.995.214.71.54 1.428 1.049 2.287 1.055 1.738 2.206 3.127 3.52 4.241.129.112.283.216.446.33.112.077.23.16.347.246l1.708-1.377c.546-.445 1.146-.634 1.738-.561.597.077 1.13.419 1.536.98zm-1.037.826l-2.328-3.088-.008-.009c-.13-.188-.352-.413-.65-.454-.304-.034-.588.136-.772.284l-1.85 1.496c-.091.075-.373.304-.772.251a1.003 1.003 0 0 1-.463-.187c-.017-.007-.035-.028-.053-.04a5.81 5.81 0 0 0-.446-.323 7.086 7.086 0 0 1-.552-.41c-1.426-1.208-2.671-2.707-3.8-4.575l-.004-.004c-.618-1.055-1.003-1.922-1.244-2.823l-.009-.048c-.053-.293-.08-.724.385-1.101.006-.01.016-.013.027-.019.465-.337.898-.688 1.353-1.062.156-.122.308-.25.465-.381.574-.46.631-.95.184-1.543l-1.154-1.523c-.134-.185-.27-.365-.4-.545a21.701 21.701 0 0 0-.761-.999c-.004-.011-.009-.014-.013-.02-.135-.179-.358-.4-.661-.44-.246-.028-.511.061-.775.263l-1.844 1.49a2.32 2.32 0 0 0-.84 1.398c-.18.902-.131 1.886.17 3.188.485 2.127 1.359 4.159 2.758 6.42 1.698 2.705 3.861 4.95 6.425 6.663.939.621 2.2 1.365 3.619 1.641.071.016.148.025.22.036.752.092 1.355-.085 1.905-.565a13.06 13.06 0 0 1 1.048-.878c.232-.181.448-.35.66-.532-.005.003-.005 0 0 0 .554-.467.616-.99.18-1.561z"/></defs><g><g transform="translate(-1641 -9441)"><use fill="#b6475f" xlink:href="#kg7fa"/></g></g></svg>