<svg xmlns="http://www.w3.org/2000/svg" xmlns:xlink="http://www.w3.org/1999/xlink" width="19" height="23" viewBox="0 0 19 23"><defs><path id="d6z2a" d="M1647.902 9375.935c-1.712-2.07-1.427-5.614-1.396-5.95.111-2.557 1.25-3.772 2.184-4.342.93-.564 1.899-.652 2.392-.652h.076c.898.025 1.704.249 2.393.676.925.567 2.046 1.78 2.157 4.318.031.336.316 3.88-1.397 5.95-.778.938-1.832 1.426-3.135 1.455h-.143c-1.303-.03-2.357-.517-3.13-1.455zm.894-.856c.557.676 1.308 1.014 2.286 1.022h.045c.983-.008 1.73-.346 2.29-1.022 1.415-1.703 1.104-4.942 1.1-4.976-.005-.01-.005-.025-.005-.038-.138-3.23-2.18-3.752-3.38-3.78h-.054c-.97 0-3.233.37-3.38 3.78 0 .01-.005.024-.005.038-.004.027-.307 3.28 1.103 4.976zm11.235 10.338a.638.638 0 0 1-.231.301c-.134.088-3.331 2.276-8.682 2.276-5.35 0-8.548-2.181-8.682-2.276a.611.611 0 0 1-.231-.3c-.236-.64-.231-1.91-.227-2.156v-.015c.004-.038.004-.077.004-.12.027-.942.085-3.143 2.015-3.855l.045-.014c2.015-.55 3.673-1.783 3.691-1.8a.571.571 0 0 1 .836.16c.192.288.125.689-.146.89-.076.056-1.846 1.379-4.061 1.989-1.036.397-1.152 1.583-1.183 2.668 0 .044-.005.082-.005.118-.009.426.023 1.092.094 1.471.725.44 3.567 1.958 7.846 1.958 4.296 0 7.12-1.512 7.841-1.95.071-.38.098-1.047.094-1.472-.005-.039-.005-.079-.005-.12-.031-1.086-.147-2.27-1.183-2.67-2.215-.609-3.985-1.929-4.061-1.986a.669.669 0 0 1-.147-.894.576.576 0 0 1 .837-.156c.017.013 1.685 1.249 3.691 1.8.013.005.031.008.045.013 1.93.707 1.988 2.908 2.014 3.855 0 .042.005.08.005.119v.016c.004.246.009 1.516-.214 2.15z"/></defs><g><g transform="translate(-1642 -9365)"><use fill="#b6475f" xlink:href="#d6z2a"/></g></g></svg>